<svg width="22" height="22" viewBox="0 0 22 22" fill="none" xmlns="http://www.w3.org/2000/svg">
<path d="M20.7959 19.2039L16.3437 14.7499C17.6787 13.0103 18.3019 10.8281 18.087 8.64594C17.8722 6.46377 16.8353 4.44503 15.1867 2.99924C13.5382 1.55344 11.4014 0.788858 9.20984 0.860583C7.01829 0.932307 4.93607 1.83497 3.38558 3.38546C1.83509 4.93595 0.932429 7.01817 0.860705 9.20972C0.78898 11.4013 1.55356 13.538 2.99936 15.1866C4.44515 16.8352 6.46389 17.872 8.64606 18.0869C10.8282 18.3018 13.0104 17.6785 14.75 16.3436L19.2059 20.8005C19.3106 20.9051 19.4348 20.9882 19.5715 21.0448C19.7083 21.1014 19.8548 21.1306 20.0028 21.1306C20.1508 21.1306 20.2973 21.1014 20.4341 21.0448C20.5708 20.9882 20.695 20.9051 20.7997 20.8005C20.9043 20.6958 20.9873 20.5716 21.044 20.4349C21.1006 20.2982 21.1298 20.1516 21.1298 20.0036C21.1298 19.8556 21.1006 19.7091 21.044 19.5724C20.9873 19.4356 20.9043 19.3114 20.7997 19.2067L20.7959 19.2039ZM3.12499 9.49987C3.12499 8.23902 3.49888 7.00647 4.19938 5.95811C4.89987 4.90975 5.89551 4.09265 7.06039 3.61014C8.22527 3.12763 9.50707 3.00138 10.7437 3.24737C11.9803 3.49335 13.1162 4.10051 14.0078 4.99207C14.8994 5.88363 15.5065 7.01954 15.7525 8.25617C15.9985 9.4928 15.8722 10.7746 15.3897 11.9395C14.9072 13.1044 14.0901 14.1 13.0418 14.8005C11.9934 15.501 10.7608 15.8749 9.49999 15.8749C7.80977 15.8731 6.18927 15.2009 4.99411 14.0058C3.79894 12.8106 3.12673 11.1901 3.12499 9.49987Z" fill="#1A1A1A"/>
</svg>
